<svg width="24" height="24" viewBox="0 0 24 24" fill="none" xmlns="http://www.w3.org/2000/svg"><path d="M11.200 4.045 C 8.833 4.286,6.686 5.574,5.343 7.560 C 5.082 7.945,4.588 8.926,4.515 9.205 C 4.434 9.511,4.543 9.683,4.890 9.797 C 5.072 9.857,5.267 9.804,5.364 9.669 C 5.399 9.620,5.503 9.407,5.595 9.196 C 6.715 6.637,9.223 5.004,12.040 5.001 C 13.872 4.999,15.774 5.815,17.040 7.145 C 18.653 8.839,19.317 11.174,18.839 13.470 C 18.728 14.006,18.551 14.513,18.282 15.060 C 17.590 16.473,16.547 17.535,15.180 18.219 C 14.217 18.700,13.282 18.926,12.020 18.982 C 11.712 18.995,11.410 19.026,11.348 19.049 C 11.201 19.105,11.120 19.270,11.120 19.513 C 11.120 19.751,11.217 19.893,11.428 19.963 C 11.720 20.059,12.989 19.943,13.909 19.737 C 16.192 19.225,18.152 17.643,19.206 15.461 C 20.427 12.931,20.220 9.909,18.666 7.589 C 16.995 5.095,14.151 3.745,11.200 4.045 M11.620 9.054 C 11.255 9.175,10.981 9.381,10.819 9.658 C 10.655 9.938,9.000 14.395,9.000 14.557 C 9.000 14.637,9.026 14.740,9.059 14.786 C 9.142 14.905,9.364 15.000,9.558 15.000 C 9.844 15.000,9.847 14.994,10.393 13.540 L 10.589 13.020 12.000 13.020 L 13.411 13.020 13.607 13.540 C 14.153 14.994,14.156 15.000,14.442 15.000 C 14.636 15.000,14.858 14.905,14.941 14.786 C 14.974 14.740,15.000 14.637,15.000 14.557 C 15.000 14.394,13.345 9.937,13.179 9.655 C 13.058 9.448,12.801 9.231,12.537 9.114 C 12.296 9.008,11.848 8.978,11.620 9.054 M12.195 10.057 C 12.324 10.124,12.347 10.172,12.735 11.210 L 13.031 12.000 12.000 12.000 L 10.969 12.000 11.265 11.210 C 11.427 10.775,11.591 10.351,11.627 10.268 C 11.734 10.025,11.966 9.939,12.195 10.057 M4.209 12.080 C 4.137 12.124,4.060 12.207,4.038 12.265 C 4.012 12.333,4.002 13.526,4.009 15.615 L 4.020 18.860 4.132 19.100 C 4.279 19.415,4.587 19.724,4.896 19.867 L 5.140 19.980 6.949 19.980 L 8.758 19.980 8.865 19.874 C 8.942 19.796,8.976 19.714,8.989 19.574 C 9.012 19.324,8.954 19.180,8.791 19.080 C 8.666 19.004,8.589 19.000,7.028 19.000 C 5.226 19.000,5.232 19.001,5.078 18.748 C 5.003 18.624,5.000 18.524,5.000 15.493 C 5.000 13.558,4.985 12.326,4.961 12.263 C 4.908 12.122,4.694 12.000,4.500 12.000 C 4.410 12.000,4.282 12.035,4.209 12.080 " stroke="none" fill-rule="evenodd" fill="black"></path></svg>